<svg width="28" height="27" viewBox="0 0 28 27" fill="none" xmlns="http://www.w3.org/2000/svg">
  <path
    d="M24.8444 17.8555L17.7333 5.05546C16.7777 3.33324 15.4555 2.38879 13.9999 2.38879C12.5444 2.38879 11.2222 3.33324 10.2666 5.05546L3.15549 17.8555C2.25549 19.4888 2.15549 21.0555 2.87771 22.2888C3.59993 23.5221 5.02216 24.1999 6.88882 24.1999H21.111C22.9777 24.1999 24.3999 23.5221 25.1222 22.2888C25.8444 21.0555 25.7444 19.4777 24.8444 17.8555ZM13.1666 10.1666C13.1666 9.71102 13.5444 9.33324 13.9999 9.33324C14.4555 9.33324 14.8333 9.71102 14.8333 10.1666V15.7221C14.8333 16.1777 14.4555 16.5555 13.9999 16.5555C13.5444 16.5555 13.1666 16.1777 13.1666 15.7221V10.1666ZM14.7888 19.8443C14.7333 19.8888 14.6777 19.9332 14.6222 19.9777C14.5555 20.0221 14.4888 20.0555 14.4222 20.0777C14.3555 20.111 14.2888 20.1332 14.211 20.1443C14.1444 20.1555 14.0666 20.1666 13.9999 20.1666C13.9333 20.1666 13.8555 20.1555 13.7777 20.1443C13.711 20.1332 13.6444 20.111 13.5777 20.0777C13.511 20.0555 13.4444 20.0221 13.3777 19.9777C13.3222 19.9332 13.2666 19.8888 13.211 19.8443C13.011 19.6332 12.8888 19.3443 12.8888 19.0555C12.8888 18.7666 13.011 18.4777 13.211 18.2666C13.2666 18.2221 13.3222 18.1777 13.3777 18.1332C13.4444 18.0888 13.511 18.0555 13.5777 18.0332C13.6444 17.9999 13.711 17.9777 13.7777 17.9666C13.9222 17.9332 14.0777 17.9332 14.211 17.9666C14.2888 17.9777 14.3555 17.9999 14.4222 18.0332C14.4888 18.0555 14.5555 18.0888 14.6222 18.1332C14.6777 18.1777 14.7333 18.2221 14.7888 18.2666C14.9888 18.4777 15.111 18.7666 15.111 19.0555C15.111 19.3443 14.9888 19.6332 14.7888 19.8443Z"
    fill="white" />
</svg>
