<svg width="33" height="32" viewBox="0 0 33 32" fill="none" xmlns="http://www.w3.org/2000/svg">
  <path
    d="M27.1136 11.9467C26.2203 10.96 24.8736 10.3867 23.007 10.1867V9.17336C23.007 7.3467 22.2336 5.5867 20.8736 4.36003C19.5003 3.1067 17.7136 2.52003 15.8603 2.69336C12.6736 3.00003 9.99365 6.08003 9.99365 9.41336V10.1867C8.12698 10.3867 6.78031 10.96 5.88698 11.9467C4.59365 13.3867 4.63365 15.3067 4.78031 16.64L5.71365 24.0667C5.99365 26.6667 7.04698 29.3334 12.7803 29.3334H20.2203C25.9536 29.3334 27.007 26.6667 27.287 24.08L28.2203 16.6267C28.367 15.3067 28.3936 13.3867 27.1136 11.9467ZM16.047 4.5467C17.3803 4.4267 18.647 4.84003 19.6336 5.73336C20.607 6.61336 21.1536 7.8667 21.1536 9.17336V10.1067H11.847V9.41336C11.847 7.04003 13.807 4.76003 16.047 4.5467ZM11.727 17.5334H11.7136C10.9803 17.5334 10.3803 16.9334 10.3803 16.2C10.3803 15.4667 10.9803 14.8667 11.7136 14.8667C12.4603 14.8667 13.0603 15.4667 13.0603 16.2C13.0603 16.9334 12.4603 17.5334 11.727 17.5334ZM21.0603 17.5334H21.047C20.3136 17.5334 19.7136 16.9334 19.7136 16.2C19.7136 15.4667 20.3136 14.8667 21.047 14.8667C21.7936 14.8667 22.3936 15.4667 22.3936 16.2C22.3936 16.9334 21.7936 17.5334 21.0603 17.5334Z"
    fill="currentColor" />
</svg>
