<svg width="32" height="32" viewBox="0 0 32 32" fill="none" xmlns="http://www.w3.org/2000/svg">
<rect width="32" height="32" rx="4" fill="#F4372E" fill-opacity="0.05"/>
<path d="M16.0312 26.7499C12.0312 26.7499 8.78125 23.8799 8.78125 20.3499V16.6499C8.78125 16.2399 9.12125 15.8999 9.53125 15.8999C9.94125 15.8999 10.2812 16.2399 10.2812 16.6499C10.2812 19.2699 12.7513 21.2499 16.0312 21.2499C19.3112 21.2499 21.7812 19.2699 21.7812 16.6499C21.7812 16.2399 22.1213 15.8999 22.5312 15.8999C22.9412 15.8999 23.2812 16.2399 23.2812 16.6499V20.3499C23.2812 23.8799 20.0312 26.7499 16.0312 26.7499ZM10.2812 20.4599C10.3513 23.1099 12.9012 25.2499 16.0312 25.2499C19.1613 25.2499 21.7113 23.1099 21.7812 20.4599C20.4812 21.8699 18.4213 22.7499 16.0312 22.7499C13.6412 22.7499 11.5912 21.8699 10.2812 20.4599Z" fill="#171717"/>
<path d="M16.0312 26.7499C12.0312 26.7499 8.78125 23.8799 8.78125 20.3499V16.6499C8.78125 16.2399 9.12125 15.8999 9.53125 15.8999C9.94125 15.8999 10.2812 16.2399 10.2812 16.6499C10.2812 19.2699 12.7513 21.2499 16.0312 21.2499C19.3112 21.2499 21.7812 19.2699 21.7812 16.6499C21.7812 16.2399 22.1213 15.8999 22.5312 15.8999C22.9412 15.8999 23.2812 16.2399 23.2812 16.6499V20.3499C23.2812 23.8799 20.0312 26.7499 16.0312 26.7499ZM10.2812 20.4599C10.3513 23.1099 12.9012 25.2499 16.0312 25.2499C19.1613 25.2499 21.7113 23.1099 21.7812 20.4599C20.4812 21.8699 18.4213 22.7499 16.0312 22.7499C13.6412 22.7499 11.5912 21.8699 10.2812 20.4599Z" fill="url(#paint0_linear_12422_9379)"/>
<path d="M16.0312 17.75C13.2712 17.75 10.7912 16.51 9.58124 14.51C9.06124 13.66 8.78125 12.67 8.78125 11.65C8.78125 9.93 9.55125 8.31 10.9413 7.09C12.3013 5.9 14.1112 5.25 16.0312 5.25C17.9513 5.25 19.7512 5.9 21.1212 7.08C22.5112 8.31 23.2812 9.93 23.2812 11.65C23.2812 12.67 23.0013 13.65 22.4813 14.51C21.2713 16.51 18.7913 17.75 16.0312 17.75ZM16.0312 6.75C14.4713 6.75 13.0113 7.27 11.9213 8.23C10.8613 9.15 10.2812 10.37 10.2812 11.65C10.2812 12.4 10.4812 13.1 10.8612 13.73C11.8112 15.29 13.7913 16.25 16.0312 16.25C18.2712 16.25 20.2513 15.28 21.2013 13.73C21.5913 13.1 21.7812 12.4 21.7812 11.65C21.7812 10.37 21.2013 9.15 20.1313 8.21C19.0413 7.27 17.5912 6.75 16.0312 6.75Z" fill="#171717"/>
<path d="M16.0312 17.75C13.2712 17.75 10.7912 16.51 9.58124 14.51C9.06124 13.66 8.78125 12.67 8.78125 11.65C8.78125 9.93 9.55125 8.31 10.9413 7.09C12.3013 5.9 14.1112 5.25 16.0312 5.25C17.9513 5.25 19.7512 5.9 21.1212 7.08C22.5112 8.31 23.2812 9.93 23.2812 11.65C23.2812 12.67 23.0013 13.65 22.4813 14.51C21.2713 16.51 18.7913 17.75 16.0312 17.75ZM16.0312 6.75C14.4713 6.75 13.0113 7.27 11.9213 8.23C10.8613 9.15 10.2812 10.37 10.2812 11.65C10.2812 12.4 10.4812 13.1 10.8612 13.73C11.8112 15.29 13.7913 16.25 16.0312 16.25C18.2712 16.25 20.2513 15.28 21.2013 13.73C21.5913 13.1 21.7812 12.4 21.7812 11.65C21.7812 10.37 21.2013 9.15 20.1313 8.21C19.0413 7.27 17.5912 6.75 16.0312 6.75Z" fill="url(#paint1_linear_12422_9379)"/>
<path d="M16.0312 22.75C11.9012 22.75 8.78125 20.13 8.78125 16.65V11.65C8.78125 8.12 12.0312 5.25 16.0312 5.25C17.9513 5.25 19.7512 5.9 21.1212 7.08C22.5112 8.31 23.2812 9.93 23.2812 11.65V16.65C23.2812 20.13 20.1613 22.75 16.0312 22.75ZM16.0312 6.75C12.8612 6.75 10.2812 8.95 10.2812 11.65V12.65C10.2812 15.27 12.7513 17.25 16.0312 17.25C19.3112 17.25 21.7812 15.27 21.7812 12.65V11.65C21.7812 10.37 21.2013 9.15 20.1313 8.21C19.0413 7.27 17.5912 6.75 16.0312 6.75Z" fill="#171717"/>
<path d="M16.0312 22.75C11.9012 22.75 8.78125 20.13 8.78125 16.65V11.65C8.78125 8.12 12.0312 5.25 16.0312 5.25C17.9513 5.25 19.7512 5.9 21.1212 7.08C22.5112 8.31 23.2812 9.93 23.2812 11.65V16.65C23.2812 20.13 20.1613 22.75 16.0312 22.75ZM16.0312 6.75C12.8612 6.75 10.2812 8.95 10.2812 11.65V12.65C10.2812 15.27 12.7513 17.25 16.0312 17.25C19.3112 17.25 21.7812 15.27 21.7812 12.65V11.65C21.7812 10.37 21.2013 9.15 20.1313 8.21C19.0413 7.27 17.5912 6.75 16.0312 6.75Z" fill="url(#paint2_linear_12422_9379)"/>
<defs>
<linearGradient id="paint0_linear_12422_9379" x1="10.4871" y1="15.8999" x2="15.7001" y2="30.7159" gradientUnits="userSpaceOnUse">
<stop stop-color="#F4372E"/>
<stop offset="1" stop-color="#FA807A"/>
</linearGradient>
<linearGradient id="paint1_linear_12422_9379" x1="10.4871" y1="5.25" x2="17.1654" y2="21.7251" gradientUnits="userSpaceOnUse">
<stop stop-color="#F4372E"/>
<stop offset="1" stop-color="#FA807A"/>
</linearGradient>
<linearGradient id="paint2_linear_12422_9379" x1="10.4871" y1="5.25" x2="22.0148" y2="25.5631" gradientUnits="userSpaceOnUse">
<stop stop-color="#F4372E"/>
<stop offset="1" stop-color="#FA807A"/>
</linearGradient>
</defs>
</svg>
