<svg width="24" height="24" viewBox="0 0 24 24" fill="none" xmlns="http://www.w3.org/2000/svg">
<path d="M22 22.75H2C1.59 22.75 1.25 22.41 1.25 22C1.25 21.59 1.59 21.25 2 21.25H22C22.41 21.25 22.75 21.59 22.75 22C22.75 22.41 22.41 22.75 22 22.75Z" fill="currentColor"/>
<path d="M20.8894 22.75C20.4794 22.75 20.1394 22.41 20.1394 22V13C20.1394 11.76 18.9794 10.75 17.5594 10.75H6.43937C5.01937 10.75 3.85938 11.76 3.85938 13V22C3.85938 22.41 3.51937 22.75 3.10938 22.75C2.69938 22.75 2.35938 22.41 2.35938 22V13C2.35938 10.93 4.18937 9.25 6.43937 9.25H17.5494C19.7994 9.25 21.6294 10.93 21.6294 13V22C21.6394 22.41 21.2994 22.75 20.8894 22.75Z" fill="currentColor"/>
<path d="M18.4405 10.75C18.0305 10.75 17.6905 10.41 17.6905 10V7.17C17.6905 6.39 16.9405 5.75 16.0305 5.75H7.98055C7.06055 5.75 6.32055 6.39 6.32055 7.17V10C6.32055 10.41 5.98055 10.75 5.57055 10.75C5.16055 10.75 4.81055 10.41 4.81055 10V7.17C4.81055 5.56 6.23055 4.25 7.97055 4.25H16.0205C17.7605 4.25 19.1805 5.56 19.1805 7.17V10C19.1905 10.41 18.8505 10.75 18.4405 10.75Z" fill="currentColor"/>
<path d="M17.3307 17.7507C16.1707 17.7507 15.2307 16.8107 15.2307 15.6507V15.3407C15.2307 15.0107 14.9607 14.7407 14.6307 14.7407C14.3007 14.7407 14.0307 15.0107 14.0307 15.3407V15.6507C14.0307 16.8107 13.0907 17.7507 11.9307 17.7507C10.7707 17.7507 9.83068 16.8107 9.83068 15.6507V15.3407C9.83068 15.0107 9.56068 14.7407 9.23068 14.7407C8.90068 14.7407 8.63068 15.0107 8.63068 15.3407V15.6507C8.63068 16.8107 7.69068 17.7507 6.53068 17.7507C5.37068 17.7507 4.43068 16.8107 4.43068 15.6507V15.3207C4.43068 15.0007 4.17068 14.7307 3.84068 14.7207H3.47068C3.06068 14.7107 2.72068 14.3707 2.73068 13.9607C2.74068 13.5507 3.07068 13.2207 3.48068 13.2207H3.49068H3.86068C5.00068 13.2407 5.93068 14.1807 5.93068 15.3207V15.6507C5.93068 15.9807 6.20068 16.2507 6.53068 16.2507C6.86068 16.2507 7.13068 15.9807 7.13068 15.6507V15.3407C7.13068 14.1807 8.07068 13.2407 9.23068 13.2407C10.3907 13.2407 11.3307 14.1807 11.3307 15.3407V15.6507C11.3307 15.9807 11.6007 16.2507 11.9307 16.2507C12.2607 16.2507 12.5307 15.9807 12.5307 15.6507V15.3407C12.5307 14.1807 13.4707 13.2407 14.6307 13.2407C15.7907 13.2407 16.7307 14.1807 16.7307 15.3407V15.6507C16.7307 15.9807 17.0007 16.2507 17.3307 16.2507C17.6607 16.2507 17.9307 15.9807 17.9307 15.6507V15.3407C17.9307 14.1807 18.8707 13.2407 20.0307 13.2407H20.4807C20.8907 13.2407 21.2307 13.5807 21.2307 13.9907C21.2307 14.4007 20.8907 14.7407 20.4807 14.7407H20.0307C19.7007 14.7407 19.4307 15.0107 19.4307 15.3407V15.6507C19.4307 16.8107 18.4907 17.7507 17.3307 17.7507Z" fill="currentColor"/>
<path d="M8 5.75C7.59 5.75 7.25 5.41 7.25 5V3C7.25 2.59 7.59 2.25 8 2.25C8.41 2.25 8.75 2.59 8.75 3V5C8.75 5.41 8.41 5.75 8 5.75Z" fill="currentColor"/>
<path d="M16 5.75C15.59 5.75 15.25 5.41 15.25 5V3C15.25 2.59 15.59 2.25 16 2.25C16.41 2.25 16.75 2.59 16.75 3V5C16.75 5.41 16.41 5.75 16 5.75Z" fill="currentColor"/>
<path d="M12 5.75C11.59 5.75 11.25 5.41 11.25 5V2C11.25 1.59 11.59 1.25 12 1.25C12.41 1.25 12.75 1.59 12.75 2V5C12.75 5.41 12.41 5.75 12 5.75Z" fill="currentColor"/>
</svg>
