<svg width="24" height="24" viewBox="0 0 24 24" fill="none" xmlns="http://www.w3.org/2000/svg">
<path d="M12.1504 19.35C11.7404 19.35 11.4004 19.01 11.4004 18.6V16.5C11.4004 16.09 11.7404 15.75 12.1504 15.75C12.5604 15.75 12.9004 16.09 12.9004 16.5V18.6C12.9004 19.01 12.5604 19.35 12.1504 19.35Z" fill="currentColor"/>
<path d="M17.9004 22.75H6.40039V21C6.40039 19.48 7.63039 18.25 9.15039 18.25H15.1504C16.6704 18.25 17.9004 19.48 17.9004 21V22.75ZM7.90039 21.25H16.4004V21C16.4004 20.31 15.8404 19.75 15.1504 19.75H9.15039C8.46039 19.75 7.90039 20.31 7.90039 21V21.25Z" fill="currentColor"/>
<path d="M18.1504 22.75H6.15039C5.74039 22.75 5.40039 22.41 5.40039 22C5.40039 21.59 5.74039 21.25 6.15039 21.25H18.1504C18.5604 21.25 18.9004 21.59 18.9004 22C18.9004 22.41 18.5604 22.75 18.1504 22.75Z" fill="currentColor"/>
<path d="M18.4304 12.44C18.2204 12.44 18.0104 12.35 17.8604 12.18C17.6704 11.96 17.6204 11.65 17.7404 11.39C18.0804 10.61 18.2504 9.78 18.2504 8.91V5.91C18.2504 5.56 18.1904 5.22 18.0704 4.86C18.0604 4.83 18.0504 4.79 18.0404 4.75C18.0104 4.6 18.0004 4.45 18.0004 4.31C18.0004 3.9 18.3404 3.56 18.7504 3.56H19.3504C21.1404 3.56 22.6004 5.06 22.6004 6.91C22.6004 8.44 21.9704 9.95 20.8804 11.04C20.8604 11.06 20.8004 11.11 20.7904 11.12C20.2004 11.61 19.5304 12.16 18.6304 12.41C18.5604 12.43 18.5004 12.44 18.4304 12.44ZM19.6804 5.09C19.7304 5.36 19.7504 5.64 19.7504 5.91V8.91C19.7504 9.32 19.7204 9.71 19.6604 10.11C19.7204 10.06 19.7704 10.02 19.8304 9.97C20.6304 9.17 21.1004 8.05 21.1004 6.91C21.1004 6.01 20.4904 5.25 19.6804 5.09Z" fill="currentColor"/>
<path d="M5.58039 12.4C5.50039 12.4 5.43039 12.39 5.35039 12.36C4.53039 12.1 3.76039 11.62 3.12039 10.98C1.97039 9.71 1.40039 8.32 1.40039 6.85C1.40039 5.03 2.83039 3.6 4.65039 3.6H5.30039C5.55039 3.6 5.79039 3.73 5.93039 3.94C6.07039 4.15 6.09039 4.42 5.99039 4.65C5.83039 5.01 5.75039 5.42 5.75039 5.85V8.85C5.75039 9.71 5.92039 10.55 6.27039 11.35C6.39039 11.62 6.33039 11.93 6.14039 12.15C5.99039 12.31 5.79039 12.4 5.58039 12.4ZM4.30039 5.13C3.49039 5.29 2.90039 5.99 2.90039 6.85C2.90039 7.94 3.34039 8.99 4.21039 9.95C4.25039 10 4.30039 10.04 4.35039 10.08C4.28039 9.67 4.25039 9.26 4.25039 8.85V5.85C4.25039 5.61 4.27039 5.37 4.30039 5.13Z" fill="currentColor"/>
<path d="M12.0004 16.75C7.73039 16.75 4.25039 13.27 4.25039 9V6C4.25039 3.38 6.38039 1.25 9.00039 1.25H15.0004C17.6204 1.25 19.7504 3.38 19.7504 6V9C19.7504 13.27 16.2704 16.75 12.0004 16.75ZM9.00039 2.75C7.21039 2.75 5.75039 4.21 5.75039 6V9C5.75039 12.45 8.55039 15.25 12.0004 15.25C15.4504 15.25 18.2504 12.45 18.2504 9V6C18.2504 4.21 16.7904 2.75 15.0004 2.75H9.00039Z" fill="currentColor"/>
</svg>
