<svg width="32" height="32" viewBox="0 0 32 32" fill="none" xmlns="http://www.w3.org/2000/svg">
  <path
    d="M27.3333 13.5867H23.48C20.32 13.5867 17.7466 11.0134 17.7466 7.85335V4.00002C17.7466 3.26669 17.1466 2.66669 16.4133 2.66669H10.76C6.65331 2.66669 3.33331 5.33335 3.33331 10.0934V21.9067C3.33331 26.6667 6.65331 29.3334 10.76 29.3334H21.24C25.3466 29.3334 28.6666 26.6667 28.6666 21.9067V14.92C28.6666 14.1867 28.0666 13.5867 27.3333 13.5867ZM16.3733 21.04L13.7066 23.7067C13.6133 23.8 13.4933 23.88 13.3733 23.92C13.2533 23.9734 13.1333 24 13 24C12.8666 24 12.7466 23.9734 12.6266 23.92C12.52 23.88 12.4133 23.8 12.3333 23.72C12.32 23.7067 12.3066 23.7067 12.3066 23.6934L9.63998 21.0267C9.25331 20.64 9.25331 20 9.63998 19.6134C10.0266 19.2267 10.6666 19.2267 11.0533 19.6134L12 20.5867V15C12 14.4534 12.4533 14 13 14C13.5466 14 14 14.4534 14 15V20.5867L14.96 19.6267C15.3466 19.24 15.9866 19.24 16.3733 19.6267C16.76 20.0134 16.76 20.6534 16.3733 21.04Z"
    fill="currentColor" />
  <path
    d="M23.24 11.7466C24.5067 11.76 26.2667 11.76 27.7734 11.76C28.5334 11.76 28.9334 10.8666 28.4 10.3333C26.48 8.39997 23.04 4.91997 21.0667 2.94664C20.52 2.39997 19.5734 2.7733 19.5734 3.5333V8.18664C19.5734 10.1333 21.2267 11.7466 23.24 11.7466Z"
    fill="currentColor" />
</svg>
