<svg width="16" height="16" viewBox="0 0 16 16" fill="none" xmlns="http://www.w3.org/2000/svg">
<path d="M8.00065 11.833C8.27679 11.833 8.50065 11.6091 8.50065 11.333V7.33301C8.50065 7.05687 8.27679 6.83301 8.00065 6.83301C7.72451 6.83301 7.50065 7.05687 7.50065 7.33301V11.333C7.50065 11.6091 7.72451 11.833 8.00065 11.833Z" fill="#79747E"/>
<path d="M8.00065 4.66634C8.36884 4.66634 8.66732 4.96482 8.66732 5.33301C8.66732 5.7012 8.36884 5.99967 8.00065 5.99967C7.63246 5.99967 7.33398 5.7012 7.33398 5.33301C7.33398 4.96482 7.63246 4.66634 8.00065 4.66634Z" fill="#79747E"/>
<path fill-rule="evenodd" clip-rule="evenodd" d="M0.833984 7.99967C0.833984 4.04163 4.04261 0.833008 8.00065 0.833008C11.9587 0.833008 15.1673 4.04163 15.1673 7.99967C15.1673 11.9577 11.9587 15.1663 8.00065 15.1663C4.04261 15.1663 0.833984 11.9577 0.833984 7.99967ZM8.00065 1.83301C4.59489 1.83301 1.83398 4.59392 1.83398 7.99967C1.83398 11.4054 4.59489 14.1663 8.00065 14.1663C11.4064 14.1663 14.1673 11.4054 14.1673 7.99967C14.1673 4.59392 11.4064 1.83301 8.00065 1.83301Z" fill="#79747E"/>
</svg>
