<svg width="16" height="16" viewBox="0 0 16 16" fill="none" xmlns="http://www.w3.org/2000/svg">
<path fill-rule="evenodd" clip-rule="evenodd" d="M5.9987 4.50001C5.53846 4.50001 5.16536 4.87311 5.16536 5.33334C5.16536 5.79358 5.53846 6.16668 5.9987 6.16668C6.45894 6.16668 6.83203 5.79358 6.83203 5.33334C6.83203 4.87311 6.45894 4.50001 5.9987 4.50001ZM4.16536 5.33334C4.16536 4.32082 4.98618 3.50001 5.9987 3.50001C7.01122 3.50001 7.83203 4.32082 7.83203 5.33334C7.83203 6.34587 7.01122 7.16668 5.9987 7.16668C4.98618 7.16668 4.16536 6.34587 4.16536 5.33334Z" fill="currentColor"/>
<path fill-rule="evenodd" clip-rule="evenodd" d="M2.06181 2.06312C2.95146 1.17348 4.28272 0.833344 5.9987 0.833344H8.66536C8.94151 0.833344 9.16537 1.0572 9.16537 1.33334C9.16537 1.60949 8.94151 1.83334 8.66536 1.83334H5.9987C4.38135 1.83334 3.37927 2.15988 2.76892 2.77023C2.15856 3.38058 1.83203 4.38266 1.83203 6.00001V10C1.83203 11.6174 2.15856 12.6194 2.76892 13.2298C3.37927 13.8401 4.38135 14.1667 5.9987 14.1667H9.9987C11.6161 14.1667 12.6181 13.8401 13.2285 13.2298C13.8388 12.6194 14.1654 11.6174 14.1654 10V6.66668C14.1654 6.39053 14.3892 6.16668 14.6654 6.16668C14.9415 6.16668 15.1654 6.39053 15.1654 6.66668V10C15.1654 11.716 14.8252 13.0473 13.9356 13.9369C13.0459 14.8265 11.7147 15.1667 9.9987 15.1667H5.9987C4.28272 15.1667 2.95146 14.8265 2.06181 13.9369C1.17217 13.0473 0.832031 11.716 0.832031 10V6.00001C0.832031 4.28403 1.17217 2.95277 2.06181 2.06312Z" fill="currentColor"/>
<path fill-rule="evenodd" clip-rule="evenodd" d="M14.6332 1.38072C14.2614 1.00532 13.8473 0.796163 13.3956 0.83983C12.9706 0.880916 12.6414 1.13684 12.4051 1.37312L9.98514 3.79312C9.89081 3.88745 9.8152 4.00398 9.76148 4.1114C9.71019 4.21399 9.65905 4.34779 9.64258 4.49055L9.51046 5.4088L9.51019 5.41069C9.46832 5.70982 9.54881 6.01557 9.76931 6.23606C9.98981 6.45656 10.2956 6.53706 10.5947 6.49518L11.5232 6.36158L11.53 6.36056C11.6552 6.34079 11.7813 6.29467 11.8854 6.24438C11.9876 6.19498 12.1116 6.12091 12.2123 6.02023L14.6323 3.60023C14.8701 3.36243 15.1228 3.03365 15.1639 2.61078C15.2074 2.16216 15.0023 1.7502 14.6332 1.38072ZM13.4918 1.83519C13.4168 1.84244 13.296 1.89651 13.1123 2.08023L10.693 4.49944L10.6923 4.50023L10.693 4.49944C10.693 4.49944 10.6888 4.50424 10.6818 4.51433C10.6735 4.5264 10.6644 4.54171 10.6559 4.55862C10.6474 4.57562 10.6414 4.59059 10.6378 4.60158C10.6367 4.60518 10.636 4.60774 10.6356 4.60926C10.635 4.61437 10.6343 4.61947 10.6336 4.62455L10.508 5.49736L11.3742 5.37273C11.3762 5.37227 11.3836 5.37054 11.3962 5.36631C11.4122 5.36091 11.431 5.3533 11.4503 5.34397C11.4698 5.33459 11.486 5.32523 11.4978 5.31744C11.5034 5.31373 11.5067 5.31121 11.5082 5.31007L13.9251 2.89312C14.1073 2.71092 14.1612 2.58971 14.1685 2.51424C14.1733 2.4649 14.1688 2.33051 13.9251 2.0869L13.9233 2.08501C13.6753 1.83435 13.5397 1.83056 13.4918 1.83519Z" fill="currentColor"/>
<path fill-rule="evenodd" clip-rule="evenodd" d="M12.2764 1.59209C12.5422 1.51719 12.8184 1.67193 12.8933 1.93772C13.0527 2.50354 13.4952 2.94596 14.061 3.10542C14.3268 3.18033 14.4815 3.45651 14.4066 3.7223C14.3317 3.98809 14.0555 4.14284 13.7897 4.06793C12.8889 3.81406 12.1847 3.10981 11.9308 2.20897C11.8559 1.94318 12.0106 1.66699 12.2764 1.59209Z" fill="currentColor"/>
<path fill-rule="evenodd" clip-rule="evenodd" d="M13.2529 8.71263C12.9203 8.42692 12.3571 8.42692 12.0245 8.71263L9.25116 11.0926C8.54377 11.7001 7.42689 11.7002 6.71957 11.0926L6.71529 11.089L6.49766 10.8977C6.1987 10.6425 5.68782 10.6112 5.34393 10.8419L2.05741 13.0485C1.82814 13.2024 1.51751 13.1413 1.36358 12.9121C1.20966 12.6828 1.27073 12.3722 1.49999 12.2182L4.78666 10.0116C5.49538 9.53609 6.50323 9.58405 7.1512 10.1408L7.15544 10.1444L7.37303 10.3357C7.70588 10.6198 8.26757 10.6192 8.59957 10.3341L11.3729 7.95406C12.0803 7.34659 13.1972 7.34649 13.9045 7.95404L14.9911 8.88738C15.2006 9.0673 15.2246 9.38297 15.0447 9.59246C14.8647 9.80194 14.5491 9.8259 14.3396 9.64598L13.2529 8.71263Z" fill="currentColor"/>
</svg>
