<svg width="32" height="32" viewBox="0 0 32 32" fill="none" xmlns="http://www.w3.org/2000/svg">
<path fill-rule="evenodd" clip-rule="evenodd" d="M29.3327 15.9993C29.3327 23.3631 23.3631 29.3327 15.9993 29.3327C8.63555 29.3327 2.66602 23.3631 2.66602 15.9993C2.66602 8.63555 8.63555 2.66602 15.9993 2.66602C23.3631 2.66602 29.3327 8.63555 29.3327 15.9993ZM15.9993 23.666C16.5516 23.666 16.9993 23.2183 16.9993 22.666V14.666C16.9993 14.1137 16.5516 13.666 15.9993 13.666C15.4471 13.666 14.9993 14.1137 14.9993 14.666V22.666C14.9993 23.2183 15.4471 23.666 15.9993 23.666ZM15.9993 9.33268C16.7357 9.33268 17.3327 9.92964 17.3327 10.666C17.3327 11.4024 16.7357 11.9993 15.9993 11.9993C15.263 11.9993 14.666 11.4024 14.666 10.666C14.666 9.92964 15.263 9.33268 15.9993 9.33268Z" fill="#1D6ADD"/>
</svg>
