<svg width="32" height="33" viewBox="0 0 32 33" fill="none" xmlns="http://www.w3.org/2000/svg">
<path d="M27.3333 16.5C27.3333 10.2408 22.2592 5.16666 16 5.16666C9.74077 5.16666 4.66667 10.2408 4.66667 16.5C4.66667 22.7592 9.74077 27.8333 16 27.8333C22.2592 27.8333 27.3333 22.7592 27.3333 16.5ZM29.3333 16.5C29.3333 23.8638 23.3638 29.8333 16 29.8333C8.6362 29.8333 2.66667 23.8638 2.66667 16.5C2.66667 9.13619 8.6362 3.16666 16 3.16666C23.3638 3.16666 29.3333 9.13619 29.3333 16.5Z" fill="#116ACC"/>
<path d="M15 22.9173V16.2507C15 15.6984 15.4477 15.2507 16 15.2507C16.5523 15.2507 17 15.6984 17 16.2507V22.9173C17 23.4696 16.5523 23.9173 16 23.9173C15.4477 23.9173 15 23.4696 15 22.9173Z" fill="#116ACC"/>
<path d="M16 13.4173C16.9205 13.4173 17.6667 12.6711 17.6667 11.7507C17.6667 10.8302 16.9205 10.084 16 10.084C15.0795 10.084 14.3333 10.8302 14.3333 11.7507C14.3333 12.6711 15.0795 13.4173 16 13.4173Z" fill="#116ACC"/>
</svg>
