<svg width="32" height="32" viewBox="0 0 32 32" fill="none" xmlns="http://www.w3.org/2000/svg">
  <g clip-path="url(#clip0_321_661)">
    <path
      d="M27.4933 11.2666C26.0933 5.10665 20.72 2.33331 16 2.33331C16 2.33331 16 2.33331 15.9867 2.33331C11.28 2.33331 5.89334 5.09331 4.49334 11.2533C2.93334 18.1333 7.14667 23.96 10.96 27.6266C12.3733 28.9866 14.1867 29.6666 16 29.6666C17.8133 29.6666 19.6267 28.9866 21.0267 27.6266C24.84 23.96 29.0533 18.1466 27.4933 11.2666ZM16 17.9466C13.68 17.9466 11.8 16.0666 11.8 13.7466C11.8 11.4266 13.68 9.54665 16 9.54665C18.32 9.54665 20.2 11.4266 20.2 13.7466C20.2 16.0666 18.32 17.9466 16 17.9466Z"
      fill="currentColor" />
  </g>
  <defs>
    <clipPath id="clip0_321_661">
      <rect width="32" height="32" fill="white" />
    </clipPath>
  </defs>
</svg>
