<svg width="26" height="26" viewBox="0 0 26 26" fill="none" xmlns="http://www.w3.org/2000/svg">
  <path
    d="M5.41671 14.625C3.02254 14.625 1.08337 16.5642 1.08337 18.9583C1.08337 19.7708 1.31087 20.54 1.71171 21.19C2.45921 22.4467 3.83504 23.2917 5.41671 23.2917C6.99837 23.2917 8.37421 22.4467 9.12171 21.19C9.52254 20.54 9.75004 19.7708 9.75004 18.9583C9.75004 16.5642 7.81087 14.625 5.41671 14.625ZM7.55087 18.6008L5.24337 20.735C5.09171 20.8758 4.88587 20.9517 4.69087 20.9517C4.48504 20.9517 4.27921 20.8758 4.11671 20.7133L3.04421 19.6408C2.73004 19.3267 2.73004 18.8067 3.04421 18.4925C3.35837 18.1783 3.87837 18.1783 4.19254 18.4925L4.71254 19.0125L6.44587 17.4092C6.77087 17.1058 7.29087 17.1275 7.59421 17.4525C7.89754 17.7775 7.87587 18.2975 7.55087 18.6008Z"
    fill="currentColor" />
  <path
    d="M18.6875 2.63245H8.39583C5.30833 2.63245 3.25 4.69078 3.25 7.77828V12.6099C3.25 12.9891 3.64 13.2599 4.00833 13.1624C4.46333 13.0541 4.92917 12.9999 5.41667 12.9999C8.515 12.9999 11.0717 15.5133 11.3533 18.5574C11.375 18.8608 11.6242 19.0991 11.9167 19.0991H12.5125L17.095 22.1541C17.7667 22.6091 18.6875 22.1108 18.6875 21.2874V19.0991C20.2258 19.0991 21.515 18.5791 22.4142 17.6908C23.3133 16.7808 23.8333 15.4916 23.8333 13.9533V7.77828C23.8333 4.69078 21.775 2.63245 18.6875 2.63245ZM17.1492 11.7108H9.93417C9.51167 11.7108 9.165 11.3641 9.165 10.9416C9.165 10.5083 9.51167 10.1616 9.93417 10.1616H17.1492C17.5717 10.1616 17.9183 10.5083 17.9183 10.9416C17.9183 11.3641 17.5717 11.7108 17.1492 11.7108Z"
    fill="currentColor" />
</svg>
