<svg
  width="32"
  height="32"
  viewBox="0 0 32 32"
  fill="currentColor"
  xmlns="http://www.w3.org/2000/svg"
>
  <path
    d="M2.66602 13.3335V24.0002C2.66602 24.7074 2.94697 25.3857 3.44706 25.8858C3.94716 26.3859 4.62544 26.6668 5.33268 26.6668H26.666C27.3733 26.6668 28.0515 26.3859 28.5516 25.8858C29.0517 25.3857 29.3327 24.7074 29.3327 24.0002V13.3335L15.9993 18.6668L2.66602 13.3335Z"
  />
  <path
    d="M5.33268 5.3335C4.62544 5.3335 3.94716 5.61445 3.44706 6.11454C2.94697 6.61464 2.66602 7.29292 2.66602 8.00016L2.66602 10.6668L15.9993 16.0002L29.3327 10.6668V8.00016C29.3327 7.29292 29.0517 6.61464 28.5516 6.11454C28.0515 5.61445 27.3733 5.3335 26.666 5.3335H5.33268Z"
  />
</svg>
