<svg width="14" height="14" viewBox="0 0 14 14" fill="none" xmlns="http://www.w3.org/2000/svg">
<path d="M6.63333 10.9987C6.86667 10.9987 7.06389 10.9181 7.225 10.757C7.38611 10.5959 7.46667 10.3987 7.46667 10.1654C7.46667 9.93203 7.38611 9.73481 7.225 9.5737C7.06389 9.41259 6.86667 9.33203 6.63333 9.33203C6.4 9.33203 6.20278 9.41259 6.04167 9.5737C5.88056 9.73481 5.8 9.93203 5.8 10.1654C5.8 10.3987 5.88056 10.5959 6.04167 10.757C6.20278 10.9181 6.4 10.9987 6.63333 10.9987ZM6.03333 8.43203H7.26667C7.26667 8.06536 7.30833 7.77648 7.39167 7.56536C7.475 7.35425 7.71111 7.06536 8.1 6.6987C8.38889 6.40981 8.61667 6.13481 8.78333 5.8737C8.95 5.61259 9.03333 5.2987 9.03333 4.93203C9.03333 4.30981 8.80556 3.83203 8.35 3.4987C7.89444 3.16536 7.35556 2.9987 6.73333 2.9987C6.1 2.9987 5.58611 3.16536 5.19167 3.4987C4.79722 3.83203 4.52222 4.23203 4.36667 4.6987L5.46667 5.13203C5.52222 4.93203 5.64722 4.71536 5.84167 4.48203C6.03611 4.2487 6.33333 4.13203 6.73333 4.13203C7.08889 4.13203 7.35556 4.22925 7.53333 4.4237C7.71111 4.61814 7.8 4.83203 7.8 5.06536C7.8 5.28759 7.73333 5.49592 7.6 5.69036C7.46667 5.88481 7.3 6.06536 7.1 6.23203C6.61111 6.66536 6.31111 6.99314 6.2 7.21536C6.08889 7.43759 6.03333 7.84314 6.03333 8.43203ZM6.66667 13.6654C5.74444 13.6654 4.87778 13.4904 4.06667 13.1404C3.25556 12.7904 2.55 12.3154 1.95 11.7154C1.35 11.1154 0.875 10.4098 0.525 9.5987C0.175 8.78759 0 7.92092 0 6.9987C0 6.07648 0.175 5.20981 0.525 4.3987C0.875 3.58759 1.35 2.88203 1.95 2.28203C2.55 1.68203 3.25556 1.20703 4.06667 0.857031C4.87778 0.507031 5.74444 0.332031 6.66667 0.332031C7.58889 0.332031 8.45555 0.507031 9.26667 0.857031C10.0778 1.20703 10.7833 1.68203 11.3833 2.28203C11.9833 2.88203 12.4583 3.58759 12.8083 4.3987C13.1583 5.20981 13.3333 6.07648 13.3333 6.9987C13.3333 7.92092 13.1583 8.78759 12.8083 9.5987C12.4583 10.4098 11.9833 11.1154 11.3833 11.7154C10.7833 12.3154 10.0778 12.7904 9.26667 13.1404C8.45555 13.4904 7.58889 13.6654 6.66667 13.6654Z" fill="#79747E"/>
</svg>
