<svg width="32" height="32" viewBox="0 0 32 32" fill="none" xmlns="http://www.w3.org/2000/svg">
<rect width="32" height="32" rx="4" fill="#F4372E" fill-opacity="0.05"/>
<path d="M24 16V22C24 24.21 22.21 26 20 26H12C9.79 26 8 24.21 8 22V16C8 15.45 8.45 15 9 15H10.97C11.52 15 11.97 15.45 11.97 16V19.14C11.97 19.88 12.38 20.56 13.03 20.91C13.32 21.07 13.64 21.15 13.97 21.15C14.35 21.15 14.73 21.04 15.06 20.82L16.01 20.2L16.89 20.79C17.5 21.2 18.28 21.25 18.93 20.9C19.59 20.55 20 19.88 20 19.13V16C20 15.45 20.45 15 21 15H23C23.55 15 24 15.45 24 16Z" fill="#F4372E"/>
<path d="M24 16V22C24 24.21 22.21 26 20 26H12C9.79 26 8 24.21 8 22V16C8 15.45 8.45 15 9 15H10.97C11.52 15 11.97 15.45 11.97 16V19.14C11.97 19.88 12.38 20.56 13.03 20.91C13.32 21.07 13.64 21.15 13.97 21.15C14.35 21.15 14.73 21.04 15.06 20.82L16.01 20.2L16.89 20.79C17.5 21.2 18.28 21.25 18.93 20.9C19.59 20.55 20 19.88 20 19.13V16C20 15.45 20.45 15 21 15H23C23.55 15 24 15.45 24 16Z" fill="url(#paint0_linear_12401_44847)"/>
<path d="M25.5 11V12C25.5 13.1 24.97 14 23.5 14H8.5C6.97 14 6.5 13.1 6.5 12V11C6.5 9.9 6.97 9 8.5 9H23.5C24.97 9 25.5 9.9 25.5 11Z" fill="#F4372E"/>
<path d="M25.5 11V12C25.5 13.1 24.97 14 23.5 14H8.5C6.97 14 6.5 13.1 6.5 12V11C6.5 9.9 6.97 9 8.5 9H23.5C24.97 9 25.5 9.9 25.5 11Z" fill="url(#paint1_linear_12401_44847)"/>
<path d="M15.6408 8.99994H10.1208C9.78076 8.62994 9.79076 8.05994 10.1508 7.69994L11.5708 6.27994C11.9408 5.90994 12.5508 5.90994 12.9208 6.27994L15.6408 8.99994Z" fill="#F4372E"/>
<path d="M15.6408 8.99994H10.1208C9.78076 8.62994 9.79076 8.05994 10.1508 7.69994L11.5708 6.27994C11.9408 5.90994 12.5508 5.90994 12.9208 6.27994L15.6408 8.99994Z" fill="url(#paint2_linear_12401_44847)"/>
<path d="M21.8696 8.99994H16.3496L19.0696 6.27994C19.4396 5.90994 20.0496 5.90994 20.4196 6.27994L21.8396 7.69994C22.1996 8.05994 22.2096 8.62994 21.8696 8.99994Z" fill="#F4372E"/>
<path d="M21.8696 8.99994H16.3496L19.0696 6.27994C19.4396 5.90994 20.0496 5.90994 20.4196 6.27994L21.8396 7.69994C22.1996 8.05994 22.2096 8.62994 21.8696 8.99994Z" fill="url(#paint3_linear_12401_44847)"/>
<path d="M17.9695 15C18.5195 15 18.9695 15.45 18.9695 16V19.13C18.9695 19.93 18.0795 20.41 17.4195 19.96L16.5195 19.36C16.1895 19.14 15.7595 19.14 15.4195 19.36L14.4795 19.98C13.8195 20.42 12.9395 19.94 12.9395 19.15V16C12.9395 15.45 13.3895 15 13.9395 15H17.9695Z" fill="#F4372E"/>
<path d="M17.9695 15C18.5195 15 18.9695 15.45 18.9695 16V19.13C18.9695 19.93 18.0795 20.41 17.4195 19.96L16.5195 19.36C16.1895 19.14 15.7595 19.14 15.4195 19.36L14.4795 19.98C13.8195 20.42 12.9395 19.94 12.9395 19.15V16C12.9395 15.45 13.3895 15 13.9395 15H17.9695Z" fill="url(#paint4_linear_12401_44847)"/>
<defs>
<linearGradient id="paint0_linear_12401_44847" x1="9.88235" y1="15" x2="14.823" y2="30.2832" gradientUnits="userSpaceOnUse">
<stop stop-color="#F4372E"/>
<stop offset="1" stop-color="#FA807A"/>
</linearGradient>
<linearGradient id="paint1_linear_12401_44847" x1="8.73529" y1="9" x2="9.67042" y2="16.5572" gradientUnits="userSpaceOnUse">
<stop stop-color="#F4372E"/>
<stop offset="1" stop-color="#FA807A"/>
</linearGradient>
<linearGradient id="paint2_linear_12401_44847" x1="10.5516" y1="6.00244" x2="11.6123" y2="10.3431" gradientUnits="userSpaceOnUse">
<stop stop-color="#F4372E"/>
<stop offset="1" stop-color="#FA807A"/>
</linearGradient>
<linearGradient id="paint3_linear_12401_44847" x1="17.0282" y1="6.00244" x2="18.0889" y2="10.3431" gradientUnits="userSpaceOnUse">
<stop stop-color="#F4372E"/>
<stop offset="1" stop-color="#FA807A"/>
</linearGradient>
<linearGradient id="paint4_linear_12401_44847" x1="13.6489" y1="15" x2="16.3795" y2="21.803" gradientUnits="userSpaceOnUse">
<stop stop-color="#F4372E"/>
<stop offset="1" stop-color="#FA807A"/>
</linearGradient>
</defs>
</svg>
