<svg width="32" height="32" viewBox="0 0 32 32" fill="none" xmlns="http://www.w3.org/2000/svg">
  <path
    d="M15.9993 30.3334C14.9593 30.3334 13.946 29.8001 13.2527 28.8667L11.906 27.0667C11.626 26.6934 11.2527 26.4801 10.8527 26.4534C10.4527 26.4401 10.0527 26.6134 9.73268 26.9467L8.97268 26.2668L9.70602 26.9467C7.78602 29.0001 6.30602 28.8401 5.59935 28.5601C4.87935 28.2801 3.66602 27.3601 3.66602 24.4001V9.38675C3.66602 3.46675 5.37268 1.66675 10.9593 1.66675H21.0393C26.626 1.66675 28.3327 3.46675 28.3327 9.38675V24.4001C28.3327 27.3467 27.1193 28.2667 26.3993 28.5601C25.6927 28.8401 24.226 29.0001 22.2927 26.9467C21.9727 26.6001 21.586 26.4134 21.1593 26.4534C20.7593 26.4801 20.3727 26.6934 20.0927 27.0667L18.746 28.8667C18.0527 29.8001 17.0393 30.3334 15.9993 30.3334ZM10.7727 24.4401C10.826 24.4401 10.8927 24.4401 10.946 24.4401C11.9327 24.4934 12.866 25.0134 13.4927 25.8534L14.8393 27.6534C15.4927 28.5201 16.4927 28.5201 17.146 27.6534L18.4927 25.8534C19.1327 25.0134 20.0527 24.4934 21.0527 24.4401C22.0393 24.3867 23.026 24.8001 23.746 25.5734C24.7593 26.6534 25.426 26.7867 25.6527 26.6934C25.9727 26.5601 26.3193 25.7867 26.3193 24.4001V9.38675C26.3193 4.57341 25.4794 3.66675 21.026 3.66675H10.9593C6.50602 3.66675 5.66602 4.57341 5.66602 9.38675V24.4001C5.66602 25.8001 6.01268 26.5734 6.33268 26.6934C6.55935 26.7867 7.22602 26.6534 8.23935 25.5734C8.95935 24.8401 9.85268 24.4401 10.7727 24.4401Z"
    fill="currentColor" />
  <path
    d="M21.3327 10.3333H10.666C10.1193 10.3333 9.66602 9.87992 9.66602 9.33325C9.66602 8.78659 10.1193 8.33325 10.666 8.33325H21.3327C21.8793 8.33325 22.3327 8.78659 22.3327 9.33325C22.3327 9.87992 21.8793 10.3333 21.3327 10.3333Z"
    fill="currentColor" />
  <path
    d="M20 15.6667H12C11.4533 15.6667 11 15.2134 11 14.6667C11 14.1201 11.4533 13.6667 12 13.6667H20C20.5467 13.6667 21 14.1201 21 14.6667C21 15.2134 20.5467 15.6667 20 15.6667Z"
    fill="currentColor" />
</svg>
