<svg width="33" height="32" viewBox="0 0 33 32" fill="none" xmlns="http://www.w3.org/2000/svg">
  <path
    d="M26.5 4.89329C26.5 4.87996 26.5 4.86663 26.4733 4.85329C26.18 4.47996 25.7933 4.27996 25.34 4.27996C24.6333 4.27996 23.78 4.74663 22.86 5.73329C21.7667 6.90663 20.0867 6.81329 19.1267 5.53329L17.78 3.74663C17.2467 3.02663 16.54 2.66663 15.8333 2.66663C15.1267 2.66663 14.42 3.02663 13.8867 3.74663L12.5267 5.54663C11.58 6.81329 9.91333 6.90663 8.82 5.74663L8.80667 5.73329C7.3 4.11996 5.95333 3.87996 5.19333 4.85329C5.16667 4.86663 5.16667 4.87996 5.16667 4.89329C4.68667 5.91996 4.5 7.35996 4.5 9.38663V22.6133C4.5 24.64 4.68667 26.08 5.16667 27.1066C5.16667 27.12 5.18 27.1466 5.19333 27.16C5.96667 28.12 7.3 27.88 8.80667 26.2666L8.82 26.2533C9.91333 25.0933 11.58 25.1866 12.5267 26.4533L13.8867 28.2533C14.42 28.9733 15.1267 29.3333 15.8333 29.3333C16.54 29.3333 17.2467 28.9733 17.78 28.2533L19.1267 26.4666C20.0867 25.1866 21.7667 25.0933 22.86 26.2666C23.78 27.2533 24.6333 27.72 25.34 27.72C25.7933 27.72 26.18 27.5333 26.4733 27.16C26.4867 27.1466 26.5 27.12 26.5 27.1066C26.98 26.08 27.1667 24.64 27.1667 22.6133V9.38663C27.1667 7.35996 26.98 5.91996 26.5 4.89329ZM19.1667 19.3333H11.1667C10.62 19.3333 10.1667 18.88 10.1667 18.3333C10.1667 17.7866 10.62 17.3333 11.1667 17.3333H19.1667C19.7133 17.3333 20.1667 17.7866 20.1667 18.3333C20.1667 18.88 19.7133 19.3333 19.1667 19.3333ZM21.8333 14.6666H11.1667C10.62 14.6666 10.1667 14.2133 10.1667 13.6666C10.1667 13.12 10.62 12.6666 11.1667 12.6666H21.8333C22.38 12.6666 22.8333 13.12 22.8333 13.6666C22.8333 14.2133 22.38 14.6666 21.8333 14.6666Z"
    fill="currentColor" />
</svg>
