<svg width="32" height="32" viewBox="0 0 32 32" fill="none" xmlns="http://www.w3.org/2000/svg">
  <path
    d="M2.66669 13C2.12002 13 1.66669 12.5467 1.66669 12V8.66669C1.66669 4.80002 4.81335 1.66669 8.66669 1.66669H12C12.5467 1.66669 13 2.12002 13 2.66669C13 3.21335 12.5467 3.66669 12 3.66669H8.66669C5.90669 3.66669 3.66669 5.90669 3.66669 8.66669V12C3.66669 12.5467 3.21335 13 2.66669 13Z"
    fill="currentColor" />
  <path
    d="M29.3333 13C28.7867 13 28.3333 12.5467 28.3333 12V8.66669C28.3333 5.90669 26.0933 3.66669 23.3333 3.66669H20C19.4533 3.66669 19 3.21335 19 2.66669C19 2.12002 19.4533 1.66669 20 1.66669H23.3333C27.1867 1.66669 30.3333 4.80002 30.3333 8.66669V12C30.3333 12.5467 29.88 13 29.3333 13Z"
    fill="currentColor" />
  <path
    d="M23.3333 30.3333H21.3333C20.7866 30.3333 20.3333 29.88 20.3333 29.3333C20.3333 28.7866 20.7866 28.3333 21.3333 28.3333H23.3333C26.0933 28.3333 28.3333 26.0933 28.3333 23.3333V21.3333C28.3333 20.7866 28.7866 20.3333 29.3333 20.3333C29.88 20.3333 30.3333 20.7866 30.3333 21.3333V23.3333C30.3333 27.2 27.1866 30.3333 23.3333 30.3333Z"
    fill="currentColor" />
  <path
    d="M12 30.3333H8.66669C4.81335 30.3333 1.66669 27.2 1.66669 23.3333V20C1.66669 19.4533 2.12002 19 2.66669 19C3.21335 19 3.66669 19.4533 3.66669 20V23.3333C3.66669 26.0933 5.90669 28.3333 8.66669 28.3333H12C12.5467 28.3333 13 28.7867 13 29.3333C13 29.88 12.5467 30.3333 12 30.3333Z"
    fill="currentColor" />
  <path
    d="M12 7H9.33333C7.81333 7 7 7.8 7 9.33333V12C7 13.5333 7.81333 14.3333 9.33333 14.3333H12C13.52 14.3333 14.3333 13.5333 14.3333 12V9.33333C14.3333 7.8 13.52 7 12 7Z"
    fill="currentColor" />
  <path
    d="M22.6667 7H20C18.48 7 17.6667 7.8 17.6667 9.33333V12C17.6667 13.5333 18.48 14.3333 20 14.3333H22.6667C24.1867 14.3333 25 13.5333 25 12V9.33333C25 7.8 24.1867 7 22.6667 7Z"
    fill="currentColor" />
  <path
    d="M12 17.6667H9.33333C7.81333 17.6667 7 18.4667 7 20V22.6667C7 24.2 7.81333 25 9.33333 25H12C13.52 25 14.3333 24.2 14.3333 22.6667V20C14.3333 18.4667 13.52 17.6667 12 17.6667Z"
    fill="currentColor" />
  <path
    d="M22.6667 17.6667H20C18.48 17.6667 17.6667 18.4667 17.6667 20V22.6667C17.6667 24.2 18.48 25 20 25H22.6667C24.1867 25 25 24.2 25 22.6667V20C25 18.4667 24.1867 17.6667 22.6667 17.6667Z"
    fill="currentColor" />
</svg>
