<svg width="24" height="24" viewBox="0 0 24 24" fill="none" xmlns="http://www.w3.org/2000/svg">
  <path fill-rule="evenodd" clip-rule="evenodd"
    d="M3.01042 10.47C3.42464 10.47 3.76042 10.8058 3.76042 11.22V15.71C3.76042 17.8806 4.20005 19.2065 5.002 20.0084C5.80396 20.8104 7.1298 21.25 9.30042 21.25H14.6904C16.861 21.25 18.1869 20.8104 18.9888 20.0084C19.7908 19.2065 20.2304 17.8806 20.2304 15.71V11.22C20.2304 10.8058 20.5662 10.47 20.9804 10.47C21.3946 10.47 21.7304 10.8058 21.7304 11.22V15.71C21.7304 18.0294 21.2701 19.8485 20.0495 21.0691C18.829 22.2896 17.0098 22.75 14.6904 22.75H9.30042C6.98105 22.75 5.16189 22.2896 3.94134 21.0691C2.7208 19.8485 2.26042 18.0294 2.26042 15.71V11.22C2.26042 10.8058 2.59621 10.47 3.01042 10.47Z"
    fill="currentColor" />
  <path fill-rule="evenodd" clip-rule="evenodd"
    d="M8.92417 1.92515C8.96261 1.54185 9.2852 1.25 9.67042 1.25H14.3404C14.7261 1.25 15.0489 1.54247 15.0868 1.92626L15.7468 8.60626C15.97 10.8757 14.2754 12.75 12.0004 12.75C9.72548 12.75 8.03081 10.876 8.25403 8.60658L8.92417 1.92515ZM10.349 2.75L9.74682 8.75342C9.61043 10.1437 10.6156 11.25 12.0004 11.25C13.3854 11.25 14.3906 10.1442 14.2541 8.75374L13.6609 2.75H10.349Z"
    fill="currentColor" />
  <path fill-rule="evenodd" clip-rule="evenodd"
    d="M13.7444 1.49671C13.8866 1.33962 14.0885 1.25 14.3004 1.25H17.3504C18.7373 1.25 19.8711 1.51137 20.6968 2.27407C21.5126 3.02763 21.8857 4.14208 22.0733 5.49714C22.0746 5.50608 22.0757 5.51505 22.0766 5.52403L22.3567 8.27574C22.6005 10.7256 20.7755 12.75 18.3104 12.75C16.2761 12.75 14.4638 11.1194 14.2544 9.08687L14.2541 9.08452L13.5541 2.07452C13.5331 1.86369 13.6022 1.65379 13.7444 1.49671ZM15.129 2.75L15.7465 8.93313L15.7466 8.93422C15.8777 10.2012 17.0451 11.25 18.3104 11.25C19.8851 11.25 21.0199 9.99482 20.8642 8.4251L20.5857 5.68966C20.413 4.45307 20.1067 3.77096 19.679 3.37593C19.2597 2.98863 18.5836 2.75 17.3504 2.75H15.129Z"
    fill="currentColor" />
  <path fill-rule="evenodd" clip-rule="evenodd"
    d="M3.24403 2.27407C4.06973 1.51137 5.2036 1.25 6.59043 1.25H9.64043C9.85232 1.25 10.0543 1.33963 10.1965 1.49675C10.3387 1.65386 10.4078 1.86378 10.3867 2.07463L9.68692 9.08239C9.48891 11.1191 7.6735 12.75 5.64042 12.75C3.17552 12.75 1.3506 10.7259 1.59406 8.27627L1.86401 5.52672C1.86498 5.51683 1.86615 5.50697 1.86751 5.49714C2.05514 4.14208 2.42821 3.02763 3.24403 2.27407ZM3.35536 5.68835L3.08684 8.42328C2.93061 9.9934 4.0655 11.25 5.64042 11.25C6.90704 11.25 8.07147 10.2005 8.19393 8.93761L8.19411 8.93571L8.81168 2.75H6.59043C5.35725 2.75 4.68112 2.98863 4.26182 3.37593C3.83431 3.77082 3.52811 4.45258 3.35536 5.68835Z"
    fill="currentColor" />
  <path fill-rule="evenodd" clip-rule="evenodd"
    d="M9.59384 17.0934C10.2009 16.4863 11.051 16.25 12.0004 16.25C12.9499 16.25 13.7999 16.4863 14.407 17.0934C15.0141 17.7005 15.2504 18.5505 15.2504 19.5V22C15.2504 22.4142 14.9146 22.75 14.5004 22.75H9.50042C9.08621 22.75 8.75042 22.4142 8.75042 22V19.5C8.75042 18.5505 8.98677 17.7005 9.59384 17.0934ZM10.6545 18.1541C10.4291 18.3795 10.2504 18.7795 10.2504 19.5V21.25H13.7504V19.5C13.7504 18.7795 13.5718 18.3795 13.3463 18.1541C13.1209 17.9287 12.721 17.75 12.0004 17.75C11.2799 17.75 10.8799 17.9287 10.6545 18.1541Z"
    fill="currentColor" />
</svg>
