<svg width="24" height="24" viewBox="0 0 24 24" fill="none" xmlns="http://www.w3.org/2000/svg">
  <path
    d="M3.00456 10.7433L3.00458 10.7433L3.00166 10.7395C2.49607 10.0895 2.25338 9.2424 2.33624 8.35146L2.60449 5.61928C2.80918 4.18167 3.21474 3.31978 3.78659 2.8024C4.35398 2.28904 5.21302 2 6.58965 2H8.98965H10.4697H13.5097H14.9896H17.3497C18.7208 2 19.5812 2.28886 20.1492 2.80002C20.7209 3.31442 21.1257 4.16951 21.3251 5.59094L21.6131 8.34178C21.6132 8.3428 21.6133 8.34381 21.6134 8.34483C21.6958 9.20911 21.4701 10.0293 20.9896 10.67L20.9895 10.6699L20.9813 10.6813C20.3807 11.5142 19.4134 12 18.3096 12C17.3137 12 16.3375 11.5071 15.7017 10.6895L15.0735 9.88185L14.4923 10.7241C13.9454 11.5167 13.0485 12 11.9997 12C10.9564 12 10.0309 11.4918 9.49179 10.6911L8.9036 9.81751L8.27036 10.6591C7.64543 11.4896 6.6532 12 5.63965 12C4.56049 12 3.61531 11.5389 3.00456 10.7433Z"
    fill="currentColor" stroke="currentColor" stroke-width="1.5" />
  <path
    d="M11.4275 17.4061L11.4289 17.4059C12.4776 17.2965 13.1286 17.4854 13.5066 17.7901C13.8662 18.0801 14.1254 18.5953 14.1211 19.4964H14.1211V19.5V21.63H9.87109V19.15C9.87109 18.2477 10.547 17.4962 11.4275 17.4061Z"
    fill="currentColor" stroke="currentColor" stroke-width="1.5" />
  <path
    d="M3.71872 14.1871L3.71868 14.1872L3.73174 14.1915C4.03061 14.2912 4.34241 14.3732 4.67387 14.4212C4.77985 14.4388 4.94043 14.4647 5.10811 14.4693C5.28472 14.4898 5.46169 14.5 5.63891 14.5C6.77882 14.5 7.89213 14.1424 8.83047 13.5184C9.74452 14.1452 10.847 14.5 11.9989 14.5C13.1552 14.5 14.2462 14.1617 15.1597 13.5363C16.0915 14.1499 17.1862 14.5 18.3089 14.5C18.5114 14.5 18.7161 14.4891 18.9134 14.4664C19.0245 14.4571 19.1559 14.4454 19.2936 14.4214C19.6647 14.3714 19.9938 14.2656 20.2579 14.1806L20.2784 14.174L20.2784 14.1741L20.2894 14.1704C20.4571 14.1137 20.6189 14.2376 20.6189 14.4V17.38C20.6189 19.6385 18.8538 21.4877 16.6289 21.6222V19.5C16.6289 18.0651 16.187 16.8396 15.2314 15.9832C14.3888 15.2174 13.2814 14.88 12.0189 14.88C11.749 14.88 11.4717 14.8908 11.1697 14.9242C9.00527 15.145 7.36891 16.9695 7.36891 19.15V21.6222C5.14402 21.4877 3.37891 19.6385 3.37891 17.38V14.42C3.37891 14.252 3.54324 14.125 3.71872 14.1871Z"
    fill="currentColor" stroke="currentColor" stroke-width="1.5" />
</svg>
