<svg width="24" height="24" viewBox="0 0 24 24" fill="none" xmlns="http://www.w3.org/2000/svg">
  <path fill-rule="evenodd" clip-rule="evenodd"
    d="M21.01 10.47C21.4242 10.47 21.76 10.8058 21.76 11.22V15.71C21.76 18.0284 21.3025 19.8478 20.0831 21.0687C18.8636 22.2898 17.0439 22.75 14.72 22.75H9.33002C8.72528 22.75 8.15829 22.7188 7.62391 22.6425C7.21386 22.5839 6.92894 22.204 6.98752 21.794C7.0461 21.3839 7.426 21.099 7.83605 21.1576C8.28167 21.2212 8.77476 21.25 9.33002 21.25H14.72C16.8961 21.25 18.2214 20.8102 19.0218 20.0087C19.8225 19.2071 20.26 17.8815 20.26 15.71V11.22C20.26 10.8058 20.5958 10.47 21.01 10.47Z"
    fill="currentColor" />
  <path fill-rule="evenodd" clip-rule="evenodd"
    d="M3.03998 10.47C3.45419 10.47 3.78998 10.8058 3.78998 11.22V15.52C3.78998 15.9342 3.45419 16.27 3.03998 16.27C2.62576 16.27 2.28998 15.9342 2.28998 15.52V11.22C2.28998 10.8058 2.62576 10.47 3.03998 10.47Z"
    fill="currentColor" />
  <path fill-rule="evenodd" clip-rule="evenodd"
    d="M8.94375 1.92515C8.9822 1.54185 9.30478 1.25 9.69001 1.25H14.36C14.7452 1.25 15.0678 1.54184 15.1062 1.92515L15.7764 8.60664C15.9997 10.876 14.305 12.75 12.03 12.75C9.75851 12.75 8.05008 10.8794 8.27363 8.60664L8.94375 1.92515ZM10.3686 2.75L9.76643 8.75347C9.7664 8.7537 9.76645 8.75324 9.76643 8.75347C9.63038 10.1404 10.6418 11.25 12.03 11.25C13.4149 11.25 14.4201 10.1445 14.2837 8.75423C14.2837 8.75397 14.2837 8.75448 14.2837 8.75423L13.6815 2.75H10.3686Z"
    fill="currentColor" />
  <path fill-rule="evenodd" clip-rule="evenodd"
    d="M13.764 1.49671C13.9061 1.33962 14.1081 1.25 14.32 1.25H17.37C18.7568 1.25 19.8907 1.51137 20.7164 2.27405C21.5322 3.02762 21.9053 4.14206 22.0929 5.49711C22.0941 5.50605 22.0952 5.51502 22.0961 5.524L22.3763 8.27572C22.6201 10.7256 20.7951 12.75 18.33 12.75C16.292 12.75 14.4954 11.1166 14.2744 9.09135L14.2737 9.08454L13.5737 2.07452C13.5527 1.86369 13.6218 1.6538 13.764 1.49671ZM15.1486 2.75L15.7659 8.93184C15.9066 10.2052 17.0691 11.25 18.33 11.25C19.9047 11.25 21.0395 9.99477 20.8838 8.42501C20.8837 8.42475 20.8838 8.42527 20.8838 8.42501L20.6052 5.68964C20.4325 4.45304 20.1262 3.77094 19.6986 3.37592C19.2793 2.98862 18.6032 2.75 17.37 2.75H15.1486Z"
    fill="currentColor" />
  <path fill-rule="evenodd" clip-rule="evenodd"
    d="M3.27361 2.27405C4.0993 1.51137 5.23316 1.25 6.61999 1.25H9.66998C9.88187 1.25 10.0839 1.33963 10.2261 1.49674C10.3682 1.65386 10.4373 1.86378 10.4163 2.07462L9.71646 9.0824C9.71643 9.08275 9.71639 9.0831 9.71636 9.08346C9.51829 11.1201 7.70301 12.75 5.66998 12.75C3.20799 12.75 1.36959 10.7287 1.61366 8.27572L1.61384 8.274L1.89387 5.524C1.89478 5.51502 1.89586 5.50605 1.8971 5.49711C2.08472 4.14206 2.45779 3.02762 3.27361 2.27405ZM3.38476 5.68964L3.10629 8.42424C3.10627 8.4245 3.10632 8.42397 3.10629 8.42424C2.95084 9.99091 4.09224 11.25 5.66998 11.25C6.93659 11.25 8.10101 10.2005 8.22347 8.93762L8.22365 8.9357L8.84124 2.75H6.61999C5.38681 2.75 4.71069 2.98862 4.29139 3.37592C3.86374 3.77094 3.55747 4.45304 3.38476 5.68964Z"
    fill="currentColor" />
  <path fill-rule="evenodd" clip-rule="evenodd"
    d="M5 15.75C4.42521 15.75 3.88242 15.9036 3.41087 16.1719C3.40374 16.1759 3.39655 16.1799 3.38929 16.1837C3.24571 16.2593 3.10831 16.3506 2.97678 16.459L2.96626 16.4676C2.22108 17.0589 1.75 17.9745 1.75 19C1.75 19.6094 1.92053 20.1834 2.2184 20.6664C2.22367 20.6749 2.22877 20.6836 2.2337 20.6924C2.29433 20.8002 2.37353 20.91 2.46947 21.0219C2.47299 21.026 2.47647 21.0302 2.4799 21.0344C2.48809 21.0427 2.49872 21.0539 2.50962 21.0659C2.52345 21.0812 2.54059 21.1011 2.55912 21.1252C3.14182 21.8115 4.01778 22.25 5 22.25C5.82269 22.25 6.56449 21.9499 7.12828 21.4425C7.13605 21.4355 7.14397 21.4287 7.15202 21.422C7.17979 21.3885 7.21044 21.3574 7.24363 21.3291C7.43823 21.1633 7.61789 20.9419 7.77509 20.6772L7.78152 20.6663C8.07938 20.1833 8.25 19.6094 8.25 19C8.25 18.1507 7.91943 17.3784 7.37713 16.7868L7.37503 16.7845C7.28865 16.6895 7.2152 16.6189 7.14998 16.57C7.13531 16.559 7.12106 16.5474 7.10724 16.5354C6.53997 16.0411 5.81383 15.75 5 15.75ZM2.67969 14.8621C3.36572 14.4741 4.15912 14.25 5 14.25C6.17689 14.25 7.24317 14.6722 8.07311 15.3876C8.2372 15.5139 8.3755 15.6552 8.48392 15.7744C9.261 16.6227 9.75 17.7499 9.75 19C9.75 19.8884 9.50174 20.7325 9.06166 21.4484C8.85102 21.8021 8.58917 22.1408 8.26981 22.4244C8.22143 22.4798 8.1691 22.5298 8.11074 22.5762C7.27719 23.3174 6.18732 23.75 5 23.75C3.55017 23.75 2.25229 23.0955 1.3949 22.0714C1.39329 22.0695 1.39169 22.0676 1.3901 22.0656C1.38191 22.0572 1.37128 22.0461 1.36037 22.0341C1.34694 22.0192 1.3304 22.0001 1.31248 21.9768C1.1778 21.8177 1.04664 21.6392 0.933962 21.4412C0.496613 20.7269 0.25 19.8855 0.25 19C0.25 17.5079 0.936775 16.1655 2.02852 15.2967C2.23223 15.1295 2.44935 14.9843 2.67969 14.8621Z"
    fill="currentColor" />
  <path d="M6.48975 18.9805H3.50977" stroke="#171717" stroke-width="1.5" stroke-miterlimit="10"
    stroke-linecap="round" stroke-linejoin="round" />
</svg>
