<svg width="31" height="31" viewBox="0 0 31 31" fill="none" xmlns="http://www.w3.org/2000/svg">
<path fill-rule="evenodd" clip-rule="evenodd" d="M20.5 0C21.5609 0 22.5783 0.421427 23.3284 1.17157C24.0786 1.92172 24.5 2.93913 24.5 4V12.778C23.8453 12.614 23.1747 12.522 22.5 12.5035V10H17V14.129C16.5374 14.4487 16.1048 14.8096 15.7075 15.2075C15.169 15.7452 14.6988 16.3473 14.3075 17H10V22H13.0035C13.022 22.6725 13.1135 23.3435 13.2785 24H4.5C3.43913 24 2.42172 23.5786 1.67157 22.8284C0.921427 22.0783 0.5 21.0609 0.5 20V4C0.5 2.93913 0.921427 1.92172 1.67157 1.17157C2.42172 0.421427 3.43913 0 4.5 0H20.5ZM2.5 17V20C2.5 20.5304 2.71071 21.0391 3.08579 21.4142C3.46086 21.7893 3.96957 22 4.5 22H8V17H2.5ZM8 15H2.5V10H8V15ZM15 15H10V10H15V15ZM22.5 8H2.5V4C2.5 3.46957 2.71071 2.96086 3.08579 2.58579C3.46086 2.21071 3.96957 2 4.5 2H20.5C21.0304 2 21.5391 2.21071 21.9142 2.58579C22.2893 2.96086 22.5 3.46957 22.5 4V8Z" fill="#79747E"/>
<path fill-rule="evenodd" clip-rule="evenodd" d="M27.719 16.268C24.695 13.244 19.792 13.244 16.768 16.268C13.744 19.292 13.744 24.195 16.768 27.219C19.553 30.004 23.93 30.224 26.967 27.881L28.793 29.707C28.8852 29.8025 28.9956 29.8787 29.1176 29.9311C29.2396 29.9835 29.3708 30.0111 29.5036 30.0123C29.6364 30.0134 29.7681 29.9881 29.891 29.9378C30.0138 29.8875 30.1255 29.8133 30.2194 29.7194C30.3133 29.6255 30.3875 29.5138 30.4378 29.391C30.4881 29.2681 30.5134 29.1364 30.5123 29.0036C30.5111 28.8708 30.4835 28.7396 30.4311 28.6176C30.3787 28.4956 30.3025 28.3852 30.207 28.293L28.381 26.467C30.7245 23.43 30.5035 19.0525 27.719 16.268ZM18.1825 17.682C20.4255 15.4395 24.062 15.4395 26.305 17.682C28.548 19.9255 28.548 23.562 26.305 25.805C24.062 28.048 20.425 28.048 18.1825 25.805C15.9395 23.562 15.9395 19.925 18.1825 17.6825V17.682Z" fill="#79747E"/>
</svg>
