<svg width="32" height="32" viewBox="0 0 32 32" fill="none" xmlns="http://www.w3.org/2000/svg">
<rect width="32" height="32" rx="4" fill="#F4372E" fill-opacity="0.05"/>
<path d="M11 6H10C7 6 6 7.79 6 10V11V25C6 25.83 6.94 26.3 7.6 25.8L9.31 24.52C9.71 24.22 10.27 24.26 10.63 24.62L12.29 26.29C12.68 26.68 13.32 26.68 13.71 26.29L15.39 24.61C15.74 24.26 16.3 24.22 16.69 24.52L18.4 25.8C19.06 26.29 20 25.82 20 25V8C20 6.9 20.9 6 22 6H11ZM9.97 18.01C9.42 18.01 8.97 17.56 8.97 17.01C8.97 16.46 9.42 16.01 9.97 16.01C10.52 16.01 10.97 16.46 10.97 17.01C10.97 17.56 10.52 18.01 9.97 18.01ZM9.97 14.01C9.42 14.01 8.97 13.56 8.97 13.01C8.97 12.46 9.42 12.01 9.97 12.01C10.52 12.01 10.97 12.46 10.97 13.01C10.97 13.56 10.52 14.01 9.97 14.01ZM16 17.76H13C12.59 17.76 12.25 17.42 12.25 17.01C12.25 16.6 12.59 16.26 13 16.26H16C16.41 16.26 16.75 16.6 16.75 17.01C16.75 17.42 16.41 17.76 16 17.76ZM16 13.76H13C12.59 13.76 12.25 13.42 12.25 13.01C12.25 12.6 12.59 12.26 13 12.26H16C16.41 12.26 16.75 12.6 16.75 13.01C16.75 13.42 16.41 13.76 16 13.76Z" fill="#171717"/>
<path d="M11 6H10C7 6 6 7.79 6 10V11V25C6 25.83 6.94 26.3 7.6 25.8L9.31 24.52C9.71 24.22 10.27 24.26 10.63 24.62L12.29 26.29C12.68 26.68 13.32 26.68 13.71 26.29L15.39 24.61C15.74 24.26 16.3 24.22 16.69 24.52L18.4 25.8C19.06 26.29 20 25.82 20 25V8C20 6.9 20.9 6 22 6H11ZM9.97 18.01C9.42 18.01 8.97 17.56 8.97 17.01C8.97 16.46 9.42 16.01 9.97 16.01C10.52 16.01 10.97 16.46 10.97 17.01C10.97 17.56 10.52 18.01 9.97 18.01ZM9.97 14.01C9.42 14.01 8.97 13.56 8.97 13.01C8.97 12.46 9.42 12.01 9.97 12.01C10.52 12.01 10.97 12.46 10.97 13.01C10.97 13.56 10.52 14.01 9.97 14.01ZM16 17.76H13C12.59 17.76 12.25 17.42 12.25 17.01C12.25 16.6 12.59 16.26 13 16.26H16C16.41 16.26 16.75 16.6 16.75 17.01C16.75 17.42 16.41 17.76 16 17.76ZM16 13.76H13C12.59 13.76 12.25 13.42 12.25 13.01C12.25 12.6 12.59 12.26 13 12.26H16C16.41 12.26 16.75 12.6 16.75 13.01C16.75 13.42 16.41 13.76 16 13.76Z" fill="url(#paint0_linear_12422_9413)"/>
<path d="M22.01 6V7.5C22.67 7.5 23.3 7.77 23.76 8.22C24.24 8.71 24.5 9.34 24.5 10V12.42C24.5 13.16 24.17 13.5 23.42 13.5H21.5V8.01C21.5 7.73 21.73 7.5 22.01 7.5V6ZM22.01 6C20.9 6 20 6.9 20 8.01V15H23.42C25 15 26 14 26 12.42V10C26 8.9 25.55 7.9 24.83 7.17C24.1 6.45 23.11 6.01 22.01 6C22.02 6 22.01 6 22.01 6Z" fill="#171717"/>
<path d="M22.01 6V7.5C22.67 7.5 23.3 7.77 23.76 8.22C24.24 8.71 24.5 9.34 24.5 10V12.42C24.5 13.16 24.17 13.5 23.42 13.5H21.5V8.01C21.5 7.73 21.73 7.5 22.01 7.5V6ZM22.01 6C20.9 6 20 6.9 20 8.01V15H23.42C25 15 26 14 26 12.42V10C26 8.9 25.55 7.9 24.83 7.17C24.1 6.45 23.11 6.01 22.01 6C22.02 6 22.01 6 22.01 6Z" fill="url(#paint1_linear_12422_9413)"/>
<defs>
<linearGradient id="paint0_linear_12422_9413" x1="7.88235" y1="6" x2="21.87" y2="29.1245" gradientUnits="userSpaceOnUse">
<stop stop-color="#F4372E"/>
<stop offset="1" stop-color="#FA807A"/>
</linearGradient>
<linearGradient id="paint1_linear_12422_9413" x1="20.7059" y1="6" x2="27.211" y2="15.223" gradientUnits="userSpaceOnUse">
<stop stop-color="#F4372E"/>
<stop offset="1" stop-color="#FA807A"/>
</linearGradient>
</defs>
</svg>
