<svg width="32" height="32" viewBox="0 0 32 32" fill="none" xmlns="http://www.w3.org/2000/svg">
  <path
    d="M16.2134 15.4933C16.1734 15.4933 16.1467 15.4933 16.1067 15.4933C16.0401 15.48 15.9467 15.48 15.8667 15.4933C12.0001 15.3733 9.08008 12.3333 9.08008 8.58663C9.08008 4.77329 12.1867 1.66663 16.0001 1.66663C19.8134 1.66663 22.9201 4.77329 22.9201 8.58663C22.9067 12.3333 19.9734 15.3733 16.2534 15.4933C16.2401 15.4933 16.2267 15.4933 16.2134 15.4933ZM16.0001 3.66663C13.2934 3.66663 11.0801 5.87996 11.0801 8.58663C11.0801 11.2533 13.1601 13.4 15.8134 13.4933C15.8801 13.48 16.0667 13.48 16.2401 13.4933C18.8534 13.3733 20.9067 11.2266 20.9201 8.58663C20.9201 5.87996 18.7067 3.66663 16.0001 3.66663Z"
    fill="currentColor" />
  <path
    d="M16.2261 30.0667C13.6128 30.0667 10.9861 29.4 8.99948 28.0667C7.14615 26.84 6.13281 25.16 6.13281 23.3334C6.13281 21.5067 7.14615 19.8134 8.99948 18.5734C12.9995 15.92 19.4795 15.92 23.4528 18.5734C25.2928 19.8 26.3195 21.48 26.3195 23.3067C26.3195 25.1334 25.3061 26.8267 23.4528 28.0667C21.4528 29.4 18.8395 30.0667 16.2261 30.0667ZM10.1061 20.2534C8.82615 21.1067 8.13281 22.2 8.13281 23.3467C8.13281 24.48 8.83948 25.5734 10.1061 26.4134C13.4261 28.64 19.0261 28.64 22.3461 26.4134C23.6261 25.56 24.3195 24.4667 24.3195 23.32C24.3195 22.1867 23.6128 21.0934 22.3461 20.2534C19.0261 18.04 13.4261 18.04 10.1061 20.2534Z"
    fill="currentColor" />
</svg>
