<svg width="48" height="48" viewBox="0 0 48 48" fill="none" xmlns="http://www.w3.org/2000/svg">
<path d="M43.1198 21.48L40.3998 18.32C39.8798 17.72 39.4598 16.6 39.4598 15.8V12.4C39.4598 10.28 37.7198 8.53999 35.5998 8.53999H32.1998C31.4198 8.53999 30.2798 8.12 29.6798 7.59999L26.5198 4.88C25.1398 3.7 22.8798 3.7 21.4798 4.88L18.3398 7.61999C17.7398 8.12 16.5998 8.53999 15.8198 8.53999H12.3598C10.2398 8.53999 8.49976 10.28 8.49976 12.4V15.82C8.49976 16.6 8.07976 17.72 7.57976 18.32L4.87977 21.5C3.71977 22.88 3.71977 25.12 4.87977 26.5L7.57976 29.68C8.07976 30.28 8.49976 31.4 8.49976 32.18V35.6C8.49976 37.72 10.2398 39.46 12.3598 39.46H15.8198C16.5998 39.46 17.7398 39.88 18.3398 40.4L21.4998 43.12C22.8798 44.3 25.1398 44.3 26.5398 43.12L29.6998 40.4C30.2998 39.88 31.4198 39.46 32.2198 39.46H35.6198C37.7398 39.46 39.4798 37.72 39.4798 35.6V32.2C39.4798 31.42 39.8998 30.28 40.4198 29.68L43.1398 26.52C44.2998 25.14 44.2998 22.86 43.1198 21.48ZM32.3198 20.22L22.6598 29.88C22.3798 30.16 21.9998 30.32 21.5998 30.32C21.1998 30.32 20.8198 30.16 20.5398 29.88L15.6998 25.04C15.1198 24.46 15.1198 23.5 15.6998 22.92C16.2798 22.34 17.2398 22.34 17.8198 22.92L21.5998 26.7L30.1998 18.1C30.7798 17.52 31.7398 17.52 32.3198 18.1C32.8998 18.68 32.8998 19.64 32.3198 20.22Z" fill="#1F9714"/>
</svg>
