<svg width="34" height="34" viewBox="0 0 34 34" fill="none" xmlns="http://www.w3.org/2000/svg">
<path d="M19.907 2.5968C19.6894 2.41896 19.4387 2.28606 19.1694 2.20577C18.9001 2.12548 18.6175 2.0994 18.3381 2.12904C18.0586 2.15869 17.7879 2.24347 17.5414 2.37847C17.2949 2.51347 17.0777 2.69602 16.9023 2.91555L10.7483 10.625H13.4682L18.5619 4.24155L20.1981 5.57817L16.0969 10.625H18.8339L21.845 6.91905L25.4958 9.90042L24.8625 10.625H25.5C26.1337 10.6244 26.764 10.7182 27.37 10.9034C27.6015 10.4691 27.6751 9.96796 27.5782 9.48546C27.4813 9.00296 27.22 8.56905 26.8388 8.2578L19.907 2.5968ZM6.375 11.6875C6.375 11.4058 6.48694 11.1355 6.6862 10.9362C6.88546 10.737 7.15571 10.625 7.4375 10.625H8.62325L10.3126 8.50005H7.4375C6.59212 8.50005 5.78137 8.83587 5.1836 9.43364C4.58583 10.0314 4.25 10.8422 4.25 11.6875V24.4375C4.25 25.8465 4.80971 27.1978 5.806 28.1941C6.80228 29.1903 8.15354 29.75 9.5625 29.75H25.5C26.6272 29.75 27.7082 29.3023 28.5052 28.5052C29.3022 27.7082 29.75 26.6272 29.75 25.5V17C29.75 15.8729 29.3022 14.7919 28.5052 13.9948C27.7082 13.1978 26.6272 12.75 25.5 12.75H7.4375C7.15571 12.75 6.88546 12.6381 6.6862 12.4388C6.48694 12.2396 6.375 11.9693 6.375 11.6875ZM22.3125 21.25H24.4375C24.7193 21.25 24.9895 21.362 25.1888 21.5612C25.3881 21.7605 25.5 22.0308 25.5 22.3125C25.5 22.5943 25.3881 22.8646 25.1888 23.0638C24.9895 23.2631 24.7193 23.375 24.4375 23.375H22.3125C22.0307 23.375 21.7605 23.2631 21.5612 23.0638C21.3619 22.8646 21.25 22.5943 21.25 22.3125C21.25 22.0308 21.3619 21.7605 21.5612 21.5612C21.7605 21.362 22.0307 21.25 22.3125 21.25Z" fill="#191D23"/>
</svg>
