<svg width="32" height="32" viewBox="0 0 32 32" fill="none" xmlns="http://www.w3.org/2000/svg">
<path d="M29.333 14.6267V17.3734C29.333 18.1067 28.7463 18.7067 27.9996 18.7334H25.3863C23.9463 18.7334 22.6263 17.6801 22.5063 16.2401C22.4263 15.4001 22.7463 14.6134 23.3063 14.0667C23.7996 13.5601 24.4796 13.2667 25.2263 13.2667H27.9996C28.7463 13.2934 29.333 13.8934 29.333 14.6267Z" fill="currentColor"/>
<path d="M27.2927 20.7333H25.386C22.8527 20.7333 20.7193 18.8266 20.506 16.4C20.386 15.0133 20.8927 13.6266 21.906 12.64C22.7593 11.76 23.946 11.2666 25.226 11.2666H27.2927C27.6793 11.2666 27.9993 10.9466 27.9593 10.56C27.666 7.31996 25.5194 5.10663 22.3327 4.73329C22.0127 4.67996 21.6793 4.66663 21.3327 4.66663H9.33268C8.95935 4.66663 8.59935 4.69329 8.25268 4.74663C4.85268 5.17329 2.66602 7.70663 2.66602 11.3333V20.6666C2.66602 24.3466 5.65268 27.3333 9.33268 27.3333H21.3327C25.066 27.3333 27.6393 25 27.9593 21.44C27.9993 21.0533 27.6793 20.7333 27.2927 20.7333ZM17.3327 13H9.33268C8.78602 13 8.33268 12.5466 8.33268 12C8.33268 11.4533 8.78602 11 9.33268 11H17.3327C17.8793 11 18.3327 11.4533 18.3327 12C18.3327 12.5466 17.8793 13 17.3327 13Z" fill="currentColor"/>
</svg>
