<svg
  width="32"
  height="32"
  viewBox="0 0 32 32"
  fill="currentColor"
  xmlns="http://www.w3.org/2000/svg"
>
  <path
    d="M16 4C22.6276 4 28 9.3724 28 16C28 22.6276 22.6276 28 16 28C13.8793 28.0036 11.7959 27.4424 9.96401 26.374L4.00482 28L5.62722 22.0384C4.55797 20.2059 3.9963 18.1216 4.00002 16C4.00002 9.3724 9.37242 4 16 4ZM11.9104 10.36L11.6704 10.3696C11.5152 10.3803 11.3636 10.421 11.224 10.4896C11.0939 10.5634 10.9751 10.6556 10.8712 10.7632C10.7272 10.8988 10.6456 11.0164 10.558 11.1304C10.1142 11.7075 9.87518 12.416 9.87881 13.144C9.88121 13.732 10.0348 14.3044 10.2748 14.8396C10.7656 15.922 11.5732 17.068 12.6388 18.13C12.8956 18.3856 13.1476 18.6424 13.4188 18.8812C14.7429 20.0469 16.3207 20.8876 18.0268 21.3364L18.7084 21.4408C18.9304 21.4528 19.1524 21.436 19.3756 21.4252C19.725 21.4068 20.0662 21.3122 20.3752 21.148C20.5322 21.0668 20.6856 20.9787 20.8348 20.884C20.8348 20.884 20.8856 20.8496 20.9848 20.776C21.1468 20.656 21.2464 20.5708 21.3808 20.4304C21.4816 20.3264 21.5656 20.2056 21.6328 20.068C21.7264 19.8724 21.82 19.4992 21.8584 19.1884C21.8872 18.9508 21.8788 18.8212 21.8752 18.7408C21.8704 18.6124 21.7636 18.4792 21.6472 18.4228L20.9488 18.1096C20.9488 18.1096 19.9048 17.6548 19.2664 17.3644C19.1996 17.3353 19.128 17.3186 19.0552 17.3152C18.9731 17.3066 18.8901 17.3158 18.8118 17.3421C18.7336 17.3684 18.6619 17.4112 18.6016 17.4676C18.5956 17.4652 18.5152 17.5336 17.6476 18.5848C17.5978 18.6517 17.5292 18.7023 17.4506 18.7301C17.3719 18.7578 17.2868 18.7616 17.206 18.7408C17.1278 18.7199 17.0512 18.6935 16.9768 18.6616C16.828 18.5992 16.7764 18.5752 16.6744 18.532C15.9855 18.2319 15.3477 17.8258 14.7844 17.3284C14.6332 17.1964 14.4928 17.0524 14.3488 16.9132C13.8767 16.461 13.4653 15.9496 13.1248 15.3916L13.054 15.2776C13.0039 15.2005 12.9629 15.118 12.9316 15.0316C12.886 14.8552 13.0048 14.7136 13.0048 14.7136C13.0048 14.7136 13.2964 14.3944 13.432 14.2216C13.564 14.0536 13.6756 13.8904 13.7476 13.774C13.8892 13.546 13.9336 13.312 13.8592 13.1308C13.5232 12.31 13.176 11.4936 12.8176 10.6816C12.7468 10.5208 12.5368 10.4056 12.346 10.3828C12.2812 10.3748 12.2164 10.3684 12.1516 10.3636C11.9905 10.3544 11.8289 10.356 11.668 10.3684L11.9104 10.36Z"
  />
</svg>
